<?xml version="1.0" encoding="UTF-8"?>
<svg id="Layer_1" data-name="Layer 1" xmlns="http://www.w3.org/2000/svg" viewBox="0 0 454 221.49">
  <defs>
    <style>
      .cls-1 {
        fill: #f9e20d;
      }

      .cls-2 {
        fill: #16d807;
      }

      .cls-3 {
        fill: #d32e1f;
      }

      .cls-4 {
        fill: #0d222c;
      }

      .cls-5 {
        fill: #fefefe;
      }

      .cls-6 {
        fill: #0b1e29;
      }

      .cls-7 {
        fill: #12262f;
      }

      .cls-8 {
        fill: #d42e1f;
      }
    </style>
  </defs>
  <g id="Q7Bfxc.tif">
    <g>
      <path class="cls-7" d="M154.49,82.04l6.73,23.54c.3.21.62.13.96.1,8.92-.56,24.89-7.86,32.06.44,5.96,6.9,3.06,24.51,1.32,32.92-3.02,14.53-12.13,40.89-23.6,50.58-14.58,12.32-50.6,11.81-68.95,10.85-13-.68-43.1-3.33-53.03-11.55-8-6.62-15.81-31.64-13.93-41.58,1.5-7.92,8.94-9.29,15.92-9.21,1.55.02,7.36.85,8.17-.83l1.28-24.63c-.18-.78-5.08-.4-6.07-.47-6.36-.49-16.15-1.97-19.65-7.99-7.15-12.31,10.3-21.07,18.48-26.48.07-1.49.43-3.41.44-4.84.05-9.85-4-20.6,3.12-29.09,5.75-6.86,27.09-15.23,35.96-18.47,16.98-6.22,26.2-8.84,36.93,8.21,2.97,4.72,5.73,11.41,9.36,15.46,1.58,1.77,1.78,1.53,4.2,1.44,8.54-.33,19.43-3.15,26.52,3.1,11,9.7-6.59,25.86-16.2,28.52ZM129.08,50.99c-3.63-4.79-5.65-10.76-8.91-15.77-1.31-2.01-2.51-3.91-5.08-4.22-8.17-.99-27.65,7.79-35.55,11.48-3.5,1.63-10.94,4.83-13.5,7.37-5.15,5.11-.23,15.92-1.51,22.26.58.92,5.6-1.29,6.56-1.7,3.77-1.63,7.25-3.95,10.99-5.65,14.61-6.65,31.33-10.5,47.01-13.77ZM149.05,59.82c-27.3,1.06-57.82,10.49-82.02,22.9-6.24,3.2-14.97,7.96-20.15,12.56-2.22,1.98-4.03,3.57-.23,5.01,3.03,1.14,9.33,1.95,12.62,2.05,1.77.06,2.54-.07,3.95-1.15,2.99-2.28,5.29-5.55,8.64-8,15.35-11.23,45.07-22.36,64.13-21.04,4.67.32,8.93,1.95,13.75,1.05s8.85-4.54,12.05-8.26c1.65-1.92,4.06-4.17.08-4.86s-8.91-.42-12.82-.27ZM143.43,83.18c-21.9-2.12-43.1,4.53-61.63,15.71-2,1.21-6.71,3.87-7.94,5.59-3.74,5.23-2.34,23.25-2.57,30.14l-.58,6.9c4.97-.21,10.15.27,15.1.01,16.13-.85,31.03-12.67,44.78-20.09,2.72-1.47,19.46-9.06,20.07-10.39.47-1.04-.29-4.1-.56-5.36-1.59-7.59-4.88-14.96-6.67-22.52ZM185.2,137.58c1.15-5.97,2.85-14.78,2.25-20.73-.17-1.67-.6-3.13-2.3-3.62-4.24-1.21-13.84,1.2-18.28,2.49-27.83,8.07-50.88,33.23-80.24,35.96-6.17.57-12.45.17-18.61-.28-7.19-.53-14.34-1.79-21.58-1.69-.12,5.37,1.37,10.67,2.82,15.8,1.15,4.07,2.41,9.14,5.08,12.41,5.06,6.22,16.34,8.12,23.92,9.5,25.28,4.61,55.95,4.85,80.77-2.25,5.63-1.61,6.91-2.13,10.04-7.17,3.56-5.73,6.14-11.98,8.8-18.14,3.37-7.8,5.68-13.71,7.33-22.28Z"/>
      <path class="cls-5" d="M143.43,83.18c1.79,7.56,5.08,14.94,6.67,22.52.26,1.26,1.03,4.32.56,5.36-.6,1.33-17.35,8.92-20.07,10.39-13.75,7.41-28.65,19.24-44.78,20.09-4.95.26-10.13-.22-15.1-.01l.58-6.9c.24-6.9-1.17-24.91,2.57-30.14,1.24-1.73,5.94-4.39,7.94-5.59,18.53-11.18,39.74-17.83,61.63-15.71ZM121.11,97.88c-3.03.52-5.66,3.97-6.06,6.92-1.12,8.29,8.33,14.92,14.43,7.66,5.09-6.06-.81-15.86-8.37-14.58Z"/>
      <path class="cls-5" d="M185.2,137.58c-19.48,4.07-37.29,13.49-55.98,20.03-21.79,7.62-43.99,10.77-67.12,9.3-4.28-.27-8.58-.87-12.83-1.41-1.45-5.13-2.94-10.43-2.82-15.8,7.23-.1,14.39,1.16,21.58,1.69,6.16.45,12.44.85,18.61.28,29.36-2.73,52.41-27.89,80.24-35.96,4.43-1.29,14.04-3.69,18.28-2.49,1.71.49,2.14,1.95,2.3,3.62.6,5.95-1.1,14.76-2.25,20.73Z"/>
      <path class="cls-3" d="M185.2,137.58c-1.66,8.57-3.97,14.49-7.33,22.28-21.7,5.96-42.62,14.54-65.05,17.73-14.58,2.07-33.63,4.03-48.18,2.58-3.56-.36-6.9-1.21-10.3-2.25-2.67-3.27-3.92-8.34-5.08-12.41,4.25.53,8.55,1.14,12.83,1.41,23.13,1.47,45.33-1.68,67.12-9.3,18.68-6.54,36.5-15.96,55.98-20.03Z"/>
      <path class="cls-5" d="M177.87,159.86c-2.66,6.15-5.23,12.41-8.8,18.14-3.13,5.03-4.4,5.55-10.04,7.17-24.82,7.1-55.49,6.86-80.77,2.25-7.58-1.38-18.86-3.28-23.92-9.5,3.39,1.05,6.74,1.9,10.3,2.25,14.55,1.46,33.61-.51,48.18-2.58,22.43-3.18,43.35-11.77,65.05-17.73Z"/>
      <path class="cls-3" d="M129.08,50.99c-15.68,3.27-32.4,7.12-47.01,13.77-3.74,1.7-7.22,4.02-10.99,5.65-.96.41-5.98,2.62-6.56,1.7,1.28-6.34-3.64-17.15,1.51-22.26,2.56-2.54,10-5.74,13.5-7.37,7.9-3.69,27.39-12.47,35.55-11.48,2.58.31,3.78,2.22,5.08,4.22,3.26,5.01,5.28,10.97,8.91,15.77Z"/>
      <path class="cls-3" d="M149.05,59.82c3.91-.15,9.02-.39,12.82.27s1.57,2.94-.08,4.86c-3.2,3.72-7.07,7.33-12.05,8.26s-9.08-.73-13.75-1.05c-19.05-1.32-48.77,9.81-64.13,21.04-3.35,2.45-5.65,5.72-8.64,8-1.41,1.07-2.18,1.2-3.95,1.15-3.28-.1-9.59-.91-12.62-2.05-3.81-1.43-2-3.03.23-5.01,5.18-4.61,13.91-9.36,20.15-12.56,24.19-12.41,54.72-21.84,82.02-22.9Z"/>
      <path class="cls-7" d="M121.11,97.88c7.56-1.29,13.46,8.51,8.37,14.58-6.1,7.26-15.55.63-14.43-7.66.4-2.95,3.03-6.4,6.06-6.92Z"/>
    </g>
  </g>
  <g>
    <path class="cls-4" d="M211.53,108.02l9.6-11.57c4.51,3.63,10.19,6.17,14.9,6.17,5.1,0,7.25-1.67,7.25-4.51,0-3.04-3.23-4.02-8.62-6.17l-7.94-3.33c-6.86-2.74-12.84-8.53-12.84-17.74,0-10.88,9.8-19.8,23.72-19.8,7.25,0,15.29,2.74,21.17,8.53l-8.43,10.58c-4.31-3.04-8.04-4.61-12.74-4.61-4.12,0-6.66,1.47-6.66,4.31,0,3.04,3.63,4.12,9.41,6.37l7.74,3.04c7.94,3.14,12.45,8.62,12.45,17.45,0,10.78-9.02,20.38-24.89,20.38-8.04,0-17.25-2.94-24.11-9.11Z"/>
    <path class="cls-4" d="M268.77,52.25h16.86v23.72h19.01v-23.72h16.86v63.7h-16.86v-25.29h-19.01v25.29h-16.86v-63.7Z"/>
    <path class="cls-4" d="M374.8,52.25h23.33c13.92,0,25.87,5.1,25.87,21.17s-12.15,22.35-25.48,22.35h-6.86v20.19h-16.86v-63.7ZM397.73,82.44c6.66,0,9.8-3.33,9.8-9.02s-3.72-7.84-10.19-7.84h-5.68v16.86h6.08Z"/>
    <path class="cls-4" d="M210.9,169.62l6.09-7.28c3.34,2.91,7.67,4.9,11.53,4.9,4.43,0,6.6-1.74,6.6-4.53,0-2.96-2.67-3.9-6.77-5.59l-6.1-2.6c-4.86-1.98-9.47-5.97-9.47-12.79,0-7.78,6.95-13.99,16.71-13.99,5.41,0,11.06,2.13,15.1,6.15l-5.36,6.69c-3.09-2.37-6.03-3.68-9.74-3.68s-5.99,1.52-5.99,4.21c0,2.88,3.07,3.92,7.17,5.55l5.98,2.42c5.73,2.32,9.31,6.13,9.31,12.77,0,7.79-6.5,14.55-17.68,14.55-6.11,0-12.6-2.31-17.38-6.79Z"/>
    <path class="cls-4" d="M251.06,162.56v-14.43h-4.88v-7.9l5.47-.41,1.24-9.49h8.75v9.49h8.56v8.31h-8.56v14.3c0,4.05,1.84,5.67,4.62,5.67,1.18,0,2.46-.34,3.4-.68l1.67,7.69c-1.9.6-4.47,1.3-7.94,1.3-8.83,0-12.34-5.58-12.34-13.85Z"/>
    <path class="cls-4" d="M275.56,165.64c0-7.53,5.99-11.6,20.12-13.09-.21-3.12-1.77-5.17-5.65-5.17-3,0-5.99,1.26-9.45,3.23l-3.76-6.95c4.53-2.77,9.64-4.7,15.26-4.7,9.13,0,14.19,5.22,14.19,16.16v20.42h-8.64l-.76-3.66h-.26c-3.01,2.64-6.38,4.52-10.39,4.52-6.52,0-10.65-4.75-10.65-10.77ZM295.68,165.17v-6.24c-7.53,1.02-9.98,3.17-9.98,5.87,0,2.3,1.58,3.43,4.1,3.43s4-1.19,5.88-3.06Z"/>
    <path class="cls-4" d="M313.85,162.56v-14.43h-4.88v-7.9l5.47-.41,1.24-9.49h8.75v9.49h8.56v8.31h-8.56v14.3c0,4.05,1.84,5.67,4.62,5.67,1.18,0,2.46-.34,3.4-.68l1.67,7.69c-1.9.6-4.47,1.3-7.94,1.3-8.83,0-12.34-5.58-12.34-13.85Z"/>
    <path class="cls-4" d="M338.21,162v-22.18h10.58v20.82c0,5.14,1.38,6.75,4.44,6.75,2.66,0,4.29-1.12,6.35-3.93v-23.64h10.58v35.72h-8.64l-.76-4.96h-.26c-2.98,3.56-6.34,5.82-11.22,5.82-7.77,0-11.08-5.48-11.08-14.41Z"/>
    <path class="cls-4" d="M373.41,171.42l4.76-6.59c3.24,2.45,6.23,3.75,9.22,3.75,3.15,0,4.51-1.2,4.51-3.07,0-2.35-3.54-3.42-7.22-4.86-4.38-1.69-9.45-4.6-9.45-10.5,0-6.65,5.41-11.18,13.65-11.18,5.47,0,9.55,2.21,12.59,4.52l-4.74,6.36c-2.54-1.85-5.05-3.05-7.52-3.05-2.73,0-4.08,1.07-4.08,2.85,0,2.28,3.35,3.15,7.05,4.5,4.52,1.67,9.62,4.22,9.62,10.75s-5.1,11.52-14.67,11.52c-4.71,0-10.1-2.04-13.72-4.99Z"/>
  </g>
  <g>
    <g>
      <rect class="cls-4" x="335.94" y="51.97" width="25.73" height="64.29" rx="6.81" ry="6.81"/>
      <path class="cls-6" d="M354.86,53.61c2.86,0,5.17,2.32,5.17,5.17v50.67c0,2.86-2.32,5.17-5.17,5.17h-12.11c-2.86,0-5.17-2.32-5.17-5.17v-50.67c0-2.86,2.32-5.17,5.17-5.17h12.11M354.86,50.33h-12.11c-4.66,0-8.45,3.79-8.45,8.45v50.67c0,4.66,3.79,8.45,8.45,8.45h12.11c4.66,0,8.45-3.79,8.45-8.45v-50.67c0-4.66-3.79-8.45-8.45-8.45h0Z"/>
    </g>
    <g>
      <circle class="cls-2" cx="348.7" cy="102.64" r="5.88"/>
      <path class="cls-6" d="M348.7,98.39c2.33,0,4.24,1.91,4.24,4.24h0c0,2.33-1.91,4.24-4.24,4.24s-4.24-1.91-4.24-4.24h0c0-2.33,1.91-4.24,4.24-4.24M348.7,95.12c-4.15,0-7.52,3.37-7.52,7.52s3.37,7.52,7.52,7.52,7.52-3.37,7.52-7.52-3.37-7.52-7.52-7.52h0Z"/>
    </g>
    <g>
      <circle class="cls-1" cx="348.7" cy="83.22" r="5.88"/>
      <path class="cls-6" d="M348.7,78.98c2.33,0,4.24,1.91,4.24,4.24h0c0,2.33-1.91,4.24-4.24,4.24s-4.24-1.91-4.24-4.24h0c0-2.33,1.91-4.24,4.24-4.24M348.7,75.7c-4.15,0-7.52,3.37-7.52,7.52s3.37,7.52,7.52,7.52,7.52-3.37,7.52-7.52-3.37-7.52-7.52-7.52h0Z"/>
    </g>
    <g>
      <circle class="cls-8" cx="348.7" cy="64.38" r="5.88"/>
      <path class="cls-6" d="M348.7,60.14c2.33,0,4.24,1.91,4.24,4.24s-1.91,4.24-4.24,4.24-4.24-1.91-4.24-4.24,1.91-4.24,4.24-4.24M348.7,56.86c-4.15,0-7.52,3.37-7.52,7.52s3.37,7.52,7.52,7.52,7.52-3.37,7.52-7.52-3.37-7.52-7.52-7.52h0Z"/>
    </g>
  </g>
</svg>